# xmcd CD database file
#
# Track frame offsets:
#	183
#	6318
#	48558
#	76158
#	112158
#	139308
#	159333
#	187683
#	223458
#	252783
#	294483
#
# Disc length: 4297 seconds
#
# Revision: 1
# Processed by: cddbd v1.5.1PL2 Copyright (c) Steve Scherf et al.
# Submitted via: CDex 1.51
#
DISCID=9c10c70b
DTITLE=Abbate-Nicola-Fontana-Albano - Brecce
DYEAR=1993
DGENRE=Jazz
TTITLE0=Sibilla E Armador
TTITLE1=La Stalla Di Pegaso
TTITLE2=Regina Delle Nevi
TTITLE3=Next To Nothing
TTITLE4=Brecce
TTITLE5=Jazz Bolero
TTITLE6=Miramar
TTITLE7=One More
TTITLE8=Lettera "A"
TTITLE9=Modal Blues On Tuesday Night
TTITLE10=Tribute To Mac Coy
EXTD=YEAR: 1993
EXTT0=
EXTT1=
EXTT2=
EXTT3=
EXTT4=
EXTT5=
EXTT6=
EXTT7=
EXTT8=
EXTT9=
EXTT10=
PLAYORDER=
